<?xml version="1.0" encoding="UTF-8"?>
<svg width="259px" height="59px" viewBox="0 0 259 59" version="1.1" xmlns="http://www.w3.org/2000/svg" xmlns:xlink="http://www.w3.org/1999/xlink">
    <!-- Generator: Sketch 55.2 (78181) - https://sketchapp.com -->
    <title>f_logo_w</title>
    <desc>Created with Sketch.</desc>
    <g id="元件" stroke="none" stroke-width="1" fill="none" fill-rule="evenodd">
        <g id="Footer" transform="translate(-927.000000, -61.000000)" fill="#FFFFFF" fill-rule="nonzero">
            <g id="Group-16">
                <g id="f_logo_w" transform="translate(927.000000, 60.000000)">
                    <path d="M55.5245902,41.3114754 C55.2590164,41.5868852 55.0131148,41.8721311 54.7377049,42.147541 C54.1967213,42.6786885 53.6557377,43.2491803 53.0459016,43.7409836 L52.1606557,44.5180328 L51.1770492,45.2459016 C50.5672131,45.757377 49.9081967,46.2295082 49.2590164,46.652459 C48.9344262,46.8885246 48.5901639,47.0852459 48.2754098,47.3016393 L47.2918033,47.9213115 L45.2459016,49.0327869 L43.9081967,49.6622951 L43.6032787,49.8590164 C42.5841062,50.5036996 41.5300353,51.0914836 40.4459016,51.6196721 C40.1409836,51.7868852 39.8065574,51.9147541 39.4622951,52.0622951 L38.3606557,52.5147541 L37.2295082,52.9180328 C36.837594,53.0726662 36.4368978,53.204042 36.0295082,53.3114754 L34.7606557,53.6655738 C34.5446237,53.7297962 34.3244326,53.7790927 34.1016393,53.8131148 L33.4327869,53.9508197 C32.9803279,54.0393443 32.5180328,54.157377 32.0360656,54.2065574 C31.5540984,54.2557377 31.052459,54.3442623 30.5901639,54.3737705 L29.852459,54.442623 L29.095082,54.442623 L27.5704918,54.5114754 C27.0590164,54.5114754 26.5377049,54.5114754 26.0065574,54.5114754 C25.4754098,54.5114754 24.9442623,54.5114754 24.4032787,54.452459 C22.1946048,54.3094006 20.0080074,53.9268285 17.8819672,53.3114754 C15.6808646,52.6760207 13.5860077,51.7180877 11.6655738,50.4688525 C10.7208801,49.85238 9.82926336,49.1581692 9,48.3934426 C8.18883522,47.5897343 7.44839449,46.7176596 6.78688525,45.7868852 C5.52177372,43.9580283 4.58943556,41.9202034 4.03278689,39.7672131 C3.7629003,38.7420755 3.58190218,37.6955773 3.49180328,36.6393443 C3.41803624,35.6308553 3.41803624,34.618325 3.49180328,33.6098361 C3.64510706,31.7601366 4.03857783,29.9382677 4.66229508,28.1901639 C4.80983607,27.7770492 4.97704918,27.3934426 5.12459016,27.0098361 C5.27213115,26.6262295 5.45901639,26.2721311 5.61639344,25.9081967 C5.77377049,25.5442623 5.9704918,25.2196721 6.13770492,24.9245902 L6.39344262,24.4327869 C6.48196721,24.2754098 6.58032787,24.1278689 6.66885246,23.9803279 C7.30048894,22.9452956 8.0753804,22.004829 8.9704918,21.1868852 C9.32459016,20.8327869 9.68852459,20.5672131 9.95409836,20.3114754 L10.8196721,19.6721311 L11.5081967,19.2295082 L11.5967213,19.357377 L10.947541,19.8688525 C10.7409836,20.0360656 10.504918,20.2622951 10.2098361,20.5081967 C10.0819672,20.6459016 9.93442623,20.7934426 9.77704918,20.9409836 C9.60666953,21.0985744 9.44573428,21.2660784 9.29508197,21.442623 C8.52538724,22.3024267 7.86466304,23.2538696 7.32786885,24.2754098 L7.09180328,24.7278689 C7.02295082,24.8852459 6.95409836,25.052459 6.87540984,25.2098361 C6.73770492,25.5540984 6.55081967,25.9081967 6.43278689,26.252459 C6.3147541,26.5967213 6.14754098,26.9508197 6.01967213,27.3245902 C5.89180328,27.6983607 5.75409836,28.0819672 5.64590164,28.4754098 C5.53770492,28.8688525 5.40983607,29.2819672 5.32131148,29.695082 C5.32131148,29.9016393 5.22295082,30.1180328 5.18360656,30.3245902 C5.13003014,30.5381527 5.09060027,30.755017 5.06557377,30.9737705 C5.00655738,31.4065574 4.90819672,31.8491803 4.86885246,32.3016393 C4.86885246,32.5180328 4.86885246,32.7540984 4.8,32.9803279 C4.73114754,33.2065574 4.8,33.442623 4.8,33.6688525 C4.75955828,34.6142379 4.79244362,35.5613358 4.89836066,36.5016393 C5.02402177,37.4754877 5.22127724,38.4387519 5.48852459,39.3836066 C5.60655738,39.8655738 5.79344262,40.3672131 5.96065574,40.8098361 C6.03934426,41.0459016 6.15737705,41.2819672 6.2557377,41.5180328 C6.34832519,41.756183 6.45338868,41.9892926 6.5704918,42.2163934 L6.92459016,42.895082 L7.00327869,43.0721311 L7.09180328,43.2098361 L7.30819672,43.5639344 L7.5147541,43.9278689 C7.5147541,43.9868852 7.58360656,44.0557377 7.62295082,44.104918 L7.73114754,44.2622951 L8.1442623,44.8819672 C8.75816485,45.7194222 9.43909343,46.5056151 10.1803279,47.2327869 L10.6327869,47.6459016 C10.4557377,47.4196721 10.2786885,47.2032787 10.1016393,46.9672131 C6.10819672,41.7344262 5.47868852,35.1639344 7.8,28.7213115 C10.0622951,22.4262295 16.8196721,19.357377 23.1639344,17.9016393 C25.1602322,17.4045965 27.2055544,17.1307872 29.2622951,17.0852459 C30.4032787,17.0852459 33.9245902,16.8590164 35.252459,15.1180328 C36.5803279,13.3770492 36.3934426,11.8032787 38.4196721,11.5377049 C38.8819672,11.4786885 39.2360656,11.4688525 39.5016393,11.4393443 C40.4852459,11.3213115 40.9180328,11.1836066 41.1639344,10.652459 C41.3921545,10.1957569 41.3008719,9.64409265 40.9377049,9.2852459 C39.9540984,8.03606557 34.2786885,3.6 21.9737705,7.21967213 C8.20327869,12.3147541 3.83606557,20.0065574 2.20327869,24.2852459 C-0.747540984,31.947541 -1.23934426,41.8032787 3.93442623,48.6885246 C7.35535674,53.1174314 12.100223,56.3392542 17.4786885,57.8852459 C26.1584304,60.5943093 35.5938153,59.296358 43.2196721,54.3442623 C45.6795098,52.7329421 47.946738,50.8452354 49.9770492,48.7180328 C52.9070796,45.7626944 55.4638458,42.4593789 57.5901639,38.8819672 C57.1967213,39.4229508 56.7737705,39.9442623 56.3114754,40.4655738 C56.0655738,40.7508197 55.7803279,41.0262295 55.5245902,41.3114754 Z" id="Shape"></path>
                    <path d="M59.842623,14.1737705 C56.0655738,8.9704918 47.8721311,3.19672131 39.3442623,1.44590164 C30.8163934,-0.304918033 20.0754098,3.2852459 17.2622951,5.13442623 C17.2622951,5.13442623 34.5245902,-1.09180328 45.7180328,8.6557377 C56.3213115,17.9508197 55.8491803,30.9836066 54.6196721,35.0655738 C53.842623,37.8688525 51.2360656,42.6786885 46.6918033,46.7409836 L47.5967213,46.1803279 C47.9213115,45.9737705 48.2557377,45.7770492 48.5803279,45.5508197 C49.2098361,45.1081967 49.8491803,44.6852459 50.4491803,44.2032787 L51.3540984,43.504918 L52.2295082,42.7672131 L52.6622951,42.4032787 L53.0754098,42.0196721 L53.8918033,41.2622951 L54.6688525,40.4655738 C54.9245902,40.2098361 55.1803279,39.9540984 55.4163934,39.6786885 L56.1344262,38.8819672 C56.3704918,38.6163934 56.5868852,38.3409836 56.8032787,38.0655738 C57.2557377,37.5442623 57.6491803,36.9836066 58.052459,36.4622951 C58.8196721,35.3803279 59.5180328,34.347541 60.0983607,33.3442623 C60.304918,32.9803279 60.5016393,32.6360656 60.6885246,32.2918033 C61.3770492,30.3245902 61.6721311,29.0655738 61.7704918,28.652459 C62.1344262,27.4721311 63.5901639,19.3770492 59.842623,14.1737705 Z" id="Shape"></path>
                    <polygon id="Shape" points="81.0491803 53.5868852 82.1114754 53.5868852 82.1114754 58.504918 84.5901639 58.504918 84.5901639 59.3508197 81.0491803 59.3508197"></polygon>
                    <polygon id="Shape" points="87.0885246 53.5868852 88.1606557 53.5868852 88.1606557 59.3114754 87.0885246 59.3114754"></polygon>
                    <polygon id="Shape" points="91.1114754 53.5868852 94.652459 53.5868852 94.652459 54.442623 92.1737705 54.442623 92.1737705 56.1442623 94.1409836 56.1442623 94.1409836 56.9704918 92.1737705 56.9704918 92.1737705 59.3114754 91.1114754 59.3114754"></polygon>
                    <polygon id="Shape" points="97.1901639 53.5868852 100.760656 53.5868852 100.760656 54.4327869 98.252459 54.4327869 98.252459 55.9967213 100.219672 55.9967213 100.219672 56.8032787 98.252459 56.8032787 98.252459 58.4754098 100.898361 58.4754098 100.898361 59.3114754 97.1901639 59.3114754"></polygon>
                    <polygon id="Shape" points="106.996721 53.5868852 108.068852 53.5868852 108.068852 59.3114754 106.996721 59.3114754"></polygon>
                    <path d="M110.67541,57.5409836 L111.659016,57.5409836 C111.727869,58.1114754 111.954098,58.5934426 112.927869,58.5934426 C113.557377,58.5934426 114.009836,58.2393443 114.009836,57.7180328 C114.009836,57.1967213 113.744262,56.9901639 112.809836,56.8327869 C111.442623,56.6459016 110.842623,56.2327869 110.842623,55.1606557 C110.877205,54.6785664 111.106308,54.2312559 111.477306,53.921472 C111.848305,53.6116882 112.329311,53.4660579 112.809836,53.5180328 C114.039344,53.5180328 114.777049,54.0786885 114.895082,55.1803279 L113.911475,55.1803279 C113.813115,54.5803279 113.468852,54.3245902 112.809836,54.3245902 C112.15082,54.3245902 111.82623,54.6295082 111.82623,55.0721311 C111.82623,55.5147541 112.022951,55.7704918 113.006557,55.9180328 C114.354098,56.095082 115.052459,56.4786885 115.052459,57.6295082 C115.023437,58.1494383 114.781016,58.6343112 114.382504,58.9695087 C113.983991,59.3047062 113.464757,59.4604775 112.947541,59.4 C111.403279,59.4 110.754098,58.6229508 110.67541,57.5409836 Z" id="Shape"></path>
                    <path d="M122.685246,53.5868852 L124.072131,53.5868852 L125.960656,59.3114754 L124.859016,59.3114754 L124.406557,57.895082 L122.213115,57.895082 L121.770492,59.3114754 L120.786885,59.3114754 L122.685246,53.5868852 Z M122.468852,57.1180328 L124.15082,57.1180328 L123.314754,54.4622951 L122.468852,57.1180328 Z" id="Shape"></path>
                    <path d="M131.940984,53.5868852 L133.770492,53.5868852 C135.04918,53.5868852 135.895082,54.157377 135.895082,55.357377 L135.895082,55.357377 C135.895082,56.557377 135.019672,57.0983607 133.790164,57.0983607 L132.993443,57.0983607 L132.993443,59.3114754 L131.931148,59.3114754 L131.940984,53.5868852 Z M133.770492,56.3704918 C134.478689,56.3704918 134.852459,56.0262295 134.852459,55.3868852 L134.852459,55.3868852 C134.852459,54.7081967 134.44918,54.4032787 133.770492,54.4032787 L132.993443,54.4032787 L132.993443,56.3704918 L133.770492,56.3704918 Z" id="Shape"></path>
                    <path d="M138.413115,53.5868852 L140.331148,53.5868852 C141.590164,53.5868852 142.47541,54.1081967 142.47541,55.2688525 L142.47541,55.2688525 C142.49453,56.0287029 141.947563,56.6850635 141.196721,56.8032787 L142.809836,59.2721311 L141.639344,59.2721311 L140.163934,57.0491803 L139.47541,57.0491803 L139.47541,59.3114754 L138.413115,59.3114754 L138.413115,53.5868852 Z M140.331148,56.242623 C141.04918,56.242623 141.422951,55.9377049 141.422951,55.3278689 L141.422951,55.3278689 C141.422951,54.6688525 141.019672,54.442623 140.331148,54.442623 L139.47541,54.442623 L139.47541,56.2721311 L140.331148,56.242623 Z" id="Shape"></path>
                    <path d="M144.885246,56.4885246 L144.885246,56.4295082 C144.846339,55.6442364 145.137836,54.8785165 145.689097,54.3179123 C146.240358,53.7573081 147.00107,53.4529836 147.786885,53.4786885 C148.562044,53.4476984 149.314757,53.7427456 149.86238,54.2922372 C150.410003,54.8417289 150.702484,55.5954431 150.668852,56.3704918 L150.668852,56.4393443 C150.668852,58.0364431 149.374148,59.3311475 147.777049,59.3311475 C146.17995,59.3311475 144.885246,58.0364431 144.885246,56.4393443 L144.885246,56.4885246 Z M149.567213,56.4885246 L149.567213,56.4295082 C149.631621,55.9158629 149.474211,55.3990976 149.134389,55.0085839 C148.794567,54.6180702 148.304503,54.3907769 147.786885,54.3836066 C146.665574,54.3836066 145.996721,55.2 145.996721,56.4393443 L145.996721,56.4983607 C145.938538,57.0150173 146.100545,57.532299 146.443048,57.9234646 C146.785552,58.3146302 147.276906,58.5435365 147.796721,58.5540984 C148.878689,58.5344262 149.567213,57.7180328 149.567213,56.4688525 L149.567213,56.4885246 Z" id="Shape"></path>
                    <path d="M153,56.4885246 L153,56.4295082 C152.94486,55.660473 153.214606,54.9035373 153.74367,54.3426923 C154.272733,53.7818473 155.012665,53.4684535 155.783607,53.4786885 C156.370709,53.4070103 156.961876,53.5754712 157.423006,53.945857 C157.884137,54.3162427 158.176143,54.8571588 158.232787,55.4459016 L157.160656,55.4459016 C157.141208,55.1083546 156.983615,54.7937125 156.724945,54.5759831 C156.466275,54.3582537 156.129359,54.2566542 155.793443,54.295082 C154.809836,54.295082 154.121311,55.0819672 154.121311,56.3606557 L154.121311,56.4196721 C154.121311,57.7081967 154.740984,58.4754098 155.793443,58.4754098 C156.148564,58.5109932 156.50318,58.4031923 156.778415,58.175985 C157.05365,57.9487778 157.226679,57.6210054 157.259016,57.2655738 L158.301639,57.2655738 C158.252093,57.8766001 157.957746,58.4416795 157.485438,58.8324909 C157.013131,59.2233023 156.402944,59.4066807 155.793443,59.3409836 C155.028237,59.3894749 154.279838,59.1023946 153.743368,58.5545901 C153.206897,58.0067855 152.935524,57.252549 153,56.4885246 L153,56.4885246 Z" id="Shape"></path>
                    <polygon id="Shape" points="160.819672 53.5868852 164.4 53.5868852 164.4 54.4327869 161.881967 54.4327869 161.881967 55.9967213 163.84918 55.9967213 163.84918 56.8032787 161.881967 56.8032787 161.881967 58.4754098 164.537705 58.4754098 164.537705 59.3114754 160.819672 59.3114754"></polygon>
                    <path d="M166.740984,57.5409836 L167.72459,57.5409836 C167.803279,58.1114754 168.029508,58.5934426 169.003279,58.5934426 C169.632787,58.5934426 170.085246,58.2393443 170.085246,57.7180328 C170.085246,57.1967213 169.819672,56.9901639 168.885246,56.8327869 C167.518033,56.6459016 166.868852,56.2327869 166.868852,55.1606557 C166.903434,54.6785664 167.132537,54.2312559 167.503536,53.921472 C167.874534,53.6116882 168.35554,53.4660579 168.836066,53.5180328 C170.065574,53.5180328 170.803279,54.0786885 170.911475,55.1803279 L169.927869,55.1803279 C169.829508,54.5803279 169.485246,54.3245902 168.82623,54.3245902 C168.167213,54.3245902 167.842623,54.6295082 167.842623,55.0721311 C167.842623,55.5147541 168.029508,55.7704918 169.022951,55.9180328 C170.370492,56.095082 171.068852,56.4786885 171.068852,57.6295082 C171.03983,58.1494383 170.79741,58.6343112 170.398897,58.9695087 C170.000385,59.3047062 169.48115,59.4604775 168.963934,59.4 C167.478689,59.4 166.819672,58.6229508 166.740984,57.5409836 Z" id="Shape"></path>
                    <path d="M173.340984,57.5409836 L174.37377,57.5409836 C174.442623,58.1114754 174.678689,58.5934426 175.642623,58.5934426 C176.272131,58.5934426 176.72459,58.2393443 176.72459,57.7180328 C176.72459,57.1967213 176.459016,56.9901639 175.534426,56.8327869 C174.157377,56.6459016 173.518033,56.2327869 173.518033,55.1606557 C173.549887,54.6774949 173.778236,54.2284627 174.149912,53.9181138 C174.521587,53.6077648 175.004153,53.4631828 175.485246,53.5180328 C176.714754,53.5180328 177.452459,54.0786885 177.570492,55.1803279 L176.586885,55.1803279 C176.488525,54.5803279 176.144262,54.3245902 175.485246,54.3245902 C174.82623,54.3245902 174.501639,54.6295082 174.501639,55.0721311 C174.501639,55.5147541 174.698361,55.7704918 175.691803,55.9180328 C177.029508,56.095082 177.727869,56.4786885 177.727869,57.6295082 C177.698846,58.1494383 177.456426,58.6343112 177.057914,58.9695087 C176.659401,59.3047062 176.140167,59.4604775 175.622951,59.4 C174.098361,59.4 173.429508,58.6229508 173.340984,57.5409836 Z" id="Shape"></path>
                    <path d="M183.6,56.4885246 L183.6,56.4295082 C183.561265,55.6459978 183.85145,54.8819016 184.400521,54.321625 C184.949592,53.7613484 185.70767,53.4557885 186.491803,53.4786885 C187.267814,53.4446508 188.02233,53.7387189 188.570643,54.2889035 C189.118956,54.8390882 189.410452,55.594602 189.37377,56.3704918 L189.37377,56.4393443 C189.436347,57.5109418 188.900205,58.529033 187.981203,59.0837166 C187.062202,59.6384001 185.911568,59.6384001 184.992567,59.0837166 C184.073566,58.529033 183.537423,57.5109418 183.6,56.4393443 L183.6,56.4885246 Z M188.272131,56.4885246 L188.272131,56.4295082 C188.33654,55.9158629 188.179129,55.3990976 187.839307,55.0085839 C187.499485,54.6180702 187.009421,54.3907769 186.491803,54.3836066 C185.370492,54.3836066 184.711475,55.2 184.711475,56.4393443 L184.711475,56.4983607 C184.653292,57.0150173 184.815299,57.532299 185.157803,57.9234646 C185.500306,58.3146302 185.99166,58.5435365 186.511475,58.5540984 C187.593443,58.5344262 188.272131,57.7180328 188.272131,56.4688525 L188.272131,56.4885246 Z" id="Shape"></path>
                    <polygon id="Shape" points="192 53.5868852 195.540984 53.5868852 195.540984 54.442623 193.062295 54.442623 193.062295 56.1442623 195.029508 56.1442623 195.029508 56.9704918 193.062295 56.9704918 193.062295 59.3114754 192 59.3114754"></polygon>
                    <path d="M201.285246,56.4885246 L201.285246,56.4295082 C201.230106,55.660473 201.499852,54.9035373 202.028916,54.3426923 C202.557979,53.7818473 203.297911,53.4684535 204.068852,53.4786885 C204.657016,53.4069562 205.249283,53.5751447 205.711965,53.9452902 C206.174646,54.3154357 206.468742,54.8563372 206.527869,55.4459016 L205.445902,55.4459016 C205.426454,55.1083546 205.268861,54.7937125 205.010191,54.5759831 C204.751521,54.3582537 204.414605,54.2566542 204.078689,54.295082 C203.095082,54.295082 202.406557,55.0819672 202.406557,56.3606557 L202.406557,56.4196721 C202.406557,57.7081967 203.02623,58.4754098 204.078689,58.4754098 C204.808775,58.5684062 205.476848,58.0541656 205.57377,57.3245902 L206.557377,57.3245902 C206.507831,57.9356165 206.213483,58.5006959 205.741176,58.8915073 C205.268868,59.2823187 204.658682,59.4656971 204.04918,59.4 C203.277667,59.4418275 202.526646,59.143067 201.994685,58.5827096 C201.462724,58.0223522 201.203389,57.2568228 201.285246,56.4885246 L201.285246,56.4885246 Z" id="Shape"></path>
                    <path d="M209.104918,53.5868852 L211.072131,53.5868852 C212.321311,53.5868852 213.206557,54.1081967 213.206557,55.2688525 L213.206557,55.2688525 C213.226385,56.0255093 212.684624,56.6806624 211.937705,56.8032787 L213.540984,59.2721311 L212.390164,59.2721311 L210.855738,57.0491803 L210.177049,57.0491803 L210.177049,59.3114754 L209.104918,59.3114754 L209.104918,53.5868852 Z M211.072131,56.242623 C211.780328,56.242623 212.154098,55.9377049 212.154098,55.3278689 L212.154098,55.3278689 C212.154098,54.6688525 211.75082,54.442623 211.072131,54.442623 L210.216393,54.442623 L210.216393,56.2721311 L211.072131,56.242623 Z" id="Shape"></path>
                    <polygon id="Shape" points="215.95082 53.5868852 219.531148 53.5868852 219.531148 54.4327869 217.013115 54.4327869 217.013115 55.9967213 219.029508 55.9967213 219.029508 56.8032787 217.013115 56.8032787 217.013115 58.4754098 219.668852 58.4754098 219.668852 59.3114754 215.95082 59.3114754"></polygon>
                    <path d="M223.701639,53.5868852 L225.088525,53.5868852 L226.977049,59.3114754 L225.87541,59.3114754 L225.422951,57.895082 L223.278689,57.895082 L222.836066,59.3114754 L221.852459,59.3114754 L223.701639,53.5868852 Z M223.485246,57.1180328 L225.167213,57.1180328 L224.331148,54.4622951 L223.485246,57.1180328 Z" id="Shape"></path>
                    <polygon id="Shape" points="230.036066 54.4327869 228.442623 54.4327869 228.442623 53.5868852 232.701639 53.5868852 232.701639 54.4327869 231.147541 54.4327869 231.147541 59.3508197 230.07541 59.3508197"></polygon>
                    <polygon id="Shape" points="235.190164 53.5868852 236.262295 53.5868852 236.262295 59.3114754 235.190164 59.3114754"></polygon>
                    <path d="M238.927869,56.4885246 L238.927869,56.4295082 C238.889134,55.6459978 239.179318,54.8819016 239.728389,54.321625 C240.277461,53.7613484 241.035539,53.4557885 241.819672,53.4786885 C242.595682,53.4446508 243.350199,53.7387189 243.898512,54.2889035 C244.446825,54.8390882 244.738321,55.594602 244.701639,56.3704918 L244.701639,56.4393443 C244.764216,57.5109418 244.228074,58.529033 243.309072,59.0837166 C242.390071,59.6384001 241.239437,59.6384001 240.320436,59.0837166 C239.401435,58.529033 238.865292,57.5109418 238.927869,56.4393443 L238.927869,56.4885246 Z M243.6,56.4885246 L243.6,56.4295082 C243.664408,55.9158629 243.506998,55.3990976 243.167176,55.0085839 C242.827354,54.6180702 242.33729,54.3907769 241.819672,54.3836066 C240.698361,54.3836066 240.039344,55.2 240.039344,56.4393443 L240.039344,56.4983607 C239.981161,57.0150173 240.143168,57.532299 240.485671,57.9234646 C240.828175,58.3146302 241.319529,58.5435365 241.839344,58.5540984 C242.95082,58.5344262 243.6,57.7180328 243.6,56.4688525 L243.6,56.4885246 Z" id="Shape"></path>
                    <polygon id="Shape" points="247.327869 53.5868852 248.596721 53.5868852 251.006557 57.7278689 251.006557 53.5868852 251.990164 53.5868852 251.990164 59.3114754 250.888525 59.3114754 248.301639 54.9245902 248.301639 59.3114754 247.318033 59.3114754"></polygon>
                    <path d="M220.780328,29.5081967 L226.888525,29.5081967 L226.888525,30.4918033 C226.888525,34.3180328 226.081967,36.7868852 224.44918,37.9081967 C222.816393,39.0295082 219.216393,39.5901639 213.629508,39.5901639 C207.295082,39.5901639 203.396721,38.704918 201.934426,36.9344262 C200.472131,35.1639344 199.744262,30.3934426 199.750776,22.6229508 C199.750776,18.0786885 200.734426,15.0983607 202.701639,13.6819672 C204.668852,12.2360656 208.809836,11.5278689 215.095082,11.5278689 C219.678689,11.5278689 222.737705,12.1081967 224.272131,13.2885246 C225.806557,14.4688525 226.57377,16.7901639 226.57377,20.2819672 L226.57377,20.9016393 L220.455738,20.9016393 L220.455738,20.2032787 C220.455738,18.4032787 220.062295,17.252459 219.265574,16.7508197 C218.468852,16.2491803 216.678689,15.9934426 213.845902,15.9934426 C210.068852,15.9934426 207.796721,16.3967213 207.029508,17.1836066 C206.262295,17.9704918 205.898361,20.3213115 205.898361,24.2262295 C205.898361,29.4885246 206.232787,32.5967213 206.881967,33.5606557 C207.531148,34.5245902 209.77377,35.0163934 213.501639,35.0163934 C216.521311,35.0163934 218.488525,34.7409836 219.403279,34.2098361 C220.318033,33.6786885 220.75082,32.4885246 220.75082,30.6590164 L220.780328,29.5081967 Z" id="Shape"></path>
                    <polyline id="Shape" points="81.0491803 38.8721311 101.44918 38.8721311 101.44918 34.6131148 86.9311475 34.6131148 86.9311475 12.2262295 81.0491803 12.2262295 81.0491803 38.8721311"></polyline>
                    <path d="M155.340984,27.6491803 L147.540984,27.6491803 L147.540984,23.3016393 L161.242623,23.3016393 L161.311475,30.0983607 C161.311475,34.0327869 160.47541,36.6393443 158.77377,37.7803279 C157.072131,38.9213115 153.304918,39.5016393 147.432787,39.5016393 C142.042623,39.5016393 138.481967,38.7245902 136.731148,37.2 C134.980328,35.6754098 134.104918,32.557377 134.104918,27.8459016 C134.104918,21.8393443 134.455738,18.042623 135.157377,16.4557377 C135.873223,14.6598203 137.295886,13.2371577 139.091803,12.5213115 C140.855738,11.8655738 143.852459,11.5377049 148.081967,11.5377049 C153.609836,11.5377049 157.190164,12.0590164 158.793443,13.1016393 C160.396721,14.1442623 161.134426,16.1114754 161.134426,19.6721311 L155.154098,19.6721311 C155.045902,17.8721311 154.691803,17.095082 153.914754,16.6622951 C153.137705,16.2295082 151.160656,16.0032787 148.013115,16.0032787 C144.590164,16.0032787 142.42623,16.3868852 141.501639,17.1245902 C140.577049,17.8622951 140.114754,19.652459 140.114754,22.4262295 L140.114754,25.1803279 L140.114754,28.7016393 C140.114754,31.4262295 140.577049,33.157377 141.481967,33.904918 C142.386885,34.652459 144.511475,35.0262295 147.836066,35.0262295 C151.160656,35.0262295 153.098361,34.7016393 153.963934,34.042623 C154.829508,33.3836066 155.281967,31.9278689 155.281967,29.5770492 L155.340984,27.6491803 Z" id="Shape"></path>
                    <polygon id="Shape" points="107.409836 38.8327869 127.819672 38.8327869 127.819672 34.5836066 113.02623 34.5836066 113.02623 27.6491803 113.02623 27.6491803 127.052459 27.6491803 127.052459 23.4 113.02623 23.4 113.02623 16.4655738 127.819672 16.4655738 127.819672 12.2163934 107.409836 12.2163934"></polygon>
                    <polygon id="Shape" points="251.065574 12.3245902 243.757377 23.3704918 236.459016 12.3245902 228.993443 12.3245902 240.836066 27.7081967 240.836066 38.8721311 243.757377 38.8721311 246.678689 38.8721311 246.678689 27.7081967 258.521311 12.3245902"></polygon>
                    <path d="M176.645902,12.4229508 L165.963934,38.2918033 L172.396721,38.2918033 L174.983607,31.8983607 L187.622951,31.8983607 L190.2,38.2918033 L196.642623,38.2918033 L185.960656,12.4229508 L176.645902,12.4229508 Z M176.714754,27.6 L181.308197,16.2393443 L185.901639,27.6 L176.714754,27.6 Z" id="Shape"></path>
                </g>
            </g>
        </g>
    </g>
</svg>