<?xml version="1.0" encoding="utf-8"?>
<!-- Generator: Adobe Illustrator 24.0.1, SVG Export Plug-In . SVG Version: 6.00 Build 0)  -->
<svg version="1.1" id="圖層_1" xmlns="http://www.w3.org/2000/svg" xmlns:xlink="http://www.w3.org/1999/xlink" x="0px" y="0px"
	 viewBox="0 0 259 59" style="enable-background:new 0 0 259 59;" xml:space="preserve">
<style type="text/css">
	.st0{fill:#FFFFFF;}
</style>
<title>f_logo_w</title>
<desc>Created with Sketch.</desc>
<g>
	<path class="st0" d="M129.5,52.3l-3.7,0c0.1-2.3,0.2-4.7,0.3-7.1l0.4-8.3c0.2-3.2,0.3-6.7,0.5-9.2c-1.4,0-2.5,0-3.2,0
		c-1,0-0.2,0-1.7,0c0,4.5-0.2,9.9-0.4,15c-0.3,5.1-0.6,9.7-1,13.8l2,0l6.7,0c2.7,0,5.9,0,9.6,0c0.1-1.6,0.2-3.1,0.3-4.5
		c-1.1,0.1-2.1,0.1-3.2,0.1C135.3,52.3,133,52.3,129.5,52.3z"/>
	<path class="st0" d="M22.8,36.9l-3.1-8.4c-1.3,0-1.1,0-2.5,0c-0.8,0-1.1,0-2.9,0c-1.2,2.4-2.6,5.1-4.4,8.4L4.3,47.3
		c-2,3.7-3.7,6.9-5.2,9.4c1.8,0,3,0,3.7,0l2.5,0c1.6-3.4,3.4-7.2,5.1-10.5h10.8c0.5,1.3,1.4,3.5,2.1,5.5c0.7,2.1,1.3,3.7,1.6,5
		c1.8,0,1.5,0,2.3,0l3.2,0l-0.9-2.3L22.8,36.9z M12.1,42.4l3.1-6.1l1.7-3.5l3.4,9.5H12.1z"/>
	<path class="st0" d="M35.4,40.8c0.6-0.7,1.4-1.2,2.2-1.6c0.9-0.3,1.8-0.5,2.7-0.5c1.6,0,3.4-0.1,5.6,0.6l1.7-4.2
		c-1.3-0.3-2.5-0.5-3.5-0.7c-1-0.1-1.9-0.2-2.9-0.2c-1.7,0-3.2,0.2-4.5,0.6c-1.4,0.4-2.6,1.1-3.7,2.1c-1.1,1-2,2.4-2.5,4.1
		c-0.6,1.7-0.9,3.4-0.9,5.2c0,1.4,0.2,2.7,0.5,4c0.3,1.3,0.9,2.4,1.6,3.3c0.7,0.9,1.5,1.6,2.4,2.2c0.9,0.5,1.9,0.9,3,1.1
		c1.1,0.2,2.2,0.3,3.3,0.3c2,0,3.5-0.2,5.5-0.7c0.2-1.1,0.3-2,0.4-2.8c0.1-0.5,0.2-1,0.2-1.4c0,0.1-1.7,0.4-1.8,0.4
		c-0.6,0.1-1.3,0.2-2,0.2c-1.3,0.1-2.6,0.1-3.9-0.2c-0.9-0.2-1.9-0.5-2.7-1c-2.8-1.7-3-5.6-2.1-8.5C34.3,42.3,34.7,41.5,35.4,40.8z"
		/>
	<path class="st0" d="M57.9,29.7c-1.5,0.4-2,0.6-2.6,0.7l-1.5,0.5c-0.1,2-0.2,3.4-0.3,4.2h-4.2c-0.1,1.9-0.1,3.3-0.2,4.1h4.1
		l-0.5,8.9c-0.1,1.7-0.2,2.7-0.2,3c0,0.3,0,0.6,0,0.7c0,0.7,0.1,1.4,0.3,2.1c0.1,0.4,0.3,0.8,0.5,1.1c0.3,0.4,0.6,0.7,0.9,0.9
		c0.4,0.2,0.9,0.4,1.3,0.6c0.9,0.3,1.9,0.5,2.9,0.5c0.7,0,1.4-0.1,2.1-0.2c0.3-0.1,0.7-0.1,1-0.2c0.1,0,1-0.1,1-0.2
		c0.4-2.1,0.6-3.6,0.8-4.4c-1,0.3-1.7,0.4-2.1,0.5c-0.4,0.1-0.8,0.1-1.1,0.1c-0.6,0-1.3,0-1.9-0.2c-0.4-0.1-0.7-0.3-1-0.5
		c-0.3-0.3-0.4-0.7-0.5-1.1c-0.1-0.4-0.1-0.8,0-1.2c0.1-1.5,0.2-3,0.3-4.4c0.1-2.1,0.3-4.1,0.4-6.1l6.1,0.1c0-0.8,0-2.2,0.1-4.1
		h-5.9C57.8,33.4,57.8,31.6,57.9,29.7z"/>
	<path class="st0" d="M65.9,34.9c0,2.7-0.1,5.5-0.2,8.5c-0.1,3-0.2,5.6-0.4,7.9c-0.1,1.4-0.2,3.2-0.5,5.4c1.5,0,2.6,0,3.4,0
		c0.8,0,0.3,0,1.6,0c0-1.7,0-4,0.1-6.9c0.1-2.9,0.1-5.5,0.3-7.8c0.1-2.3,0.3-4.6,0.5-7.1c-1.4,0-1,0-1.6,0
		C68.4,34.9,67.3,34.9,65.9,34.9z"/>
	<path class="st0" d="M92.9,37.3c-1-1-2.3-1.7-3.8-2.2s-3.1-0.7-4.7-0.7c-1.8,0-3.5,0.3-5.1,0.9c-1.7,0.6-3,1.5-4.1,2.6
		c-1.1,1.1-1.8,2.4-2.3,3.8c-0.5,1.4-0.7,2.9-0.7,4.5c0,1.5,0.3,3,0.8,4.4c0.5,1.4,1.4,2.6,2.4,3.6c1.1,1,2.3,1.7,3.8,2.2
		c1.5,0.5,3.1,0.7,4.7,0.7c1.8,0,3.5-0.3,5-0.8c1.6-0.5,2.9-1.4,4-2.5c1.1-1.1,1.9-2.4,2.4-3.9c0.6-1.5,0.8-3.1,0.8-4.7
		c0-1.5-0.3-3-0.8-4.4C94.7,39.4,93.9,38.3,92.9,37.3z M90.7,49.8c-0.6,1.4-1.5,2.5-2.8,3.2c-1.2,0.7-2.6,1.1-4.3,1.1
		c-1.6,0-2.9-0.3-4.1-1c-1.1-0.7-2-1.6-2.5-2.7c-0.5-1.1-0.8-2.4-0.8-3.9c0-1.6,0.3-3.2,0.9-4.6c0.6-1.4,1.6-2.5,2.8-3.2
		c1.3-0.7,2.7-1.1,4.3-1.1c1.6,0,3,0.3,4.1,1c1.1,0.7,1.9,1.6,2.4,2.7c0.5,1.1,0.7,2.4,0.7,3.8C91.6,46.8,91.3,48.4,90.7,49.8z"/>
	<path class="st0" d="M142.2,34.9c0,2.7-0.1,5.5-0.2,8.5c-0.1,3-0.2,5.6-0.4,7.9c-0.1,1.4-0.2,3.2-0.5,5.4c1.5,0,1.1,0,1.9,0
		c0.8,0,1.8,0,3.1,0c0-1.7,0-4,0.1-6.9c0.1-2.9,0.1-5.5,0.3-7.7c0.1-2.3,0.3-4.6,0.5-7.1c-1.4,0-2.5,0-3.1,0
		C143.1,34.9,143.6,34.9,142.2,34.9z"/>
	<path class="st0" d="M155.4,35c-0.1,0,0-1.2,0-1.3c0.1-0.6,0.4-1.2,0.8-1.6c1.6-1.5,4.3-0.6,6,0c-0.1-1.1-0.2-2.4-0.2-4
		c-1.8-0.4-2-0.7-3.7-0.7c-0.8,0-1.6,0.1-2.3,0.2c-0.8,0.1-1.5,0.4-2.1,0.7c-0.6,0.4-1.1,0.8-1.5,1.3c-0.3,0.5-0.6,1.1-0.7,1.9
		c-0.1,0.8-0.2,1.1-0.2,2.6l0,0.8h-2.9c0,0.4,0,1.1-0.1,2c-0.1,0.9-0.1,1.6-0.1,2h2.7l-0.6,14.2l-0.3,3.4c1.3,0,2.3,0,3.1,0
		c0.8,0,0.3,0,1.6,0c0.1-5.7,0.4-12.1,0.6-17.6h6.6c0.1-1.7,0.2-3.1,0.3-4H155.4z"/>
	<path class="st0" d="M195.7,44.1l-2.2,0l0.4-4.4c-0.5,0-1.2,0-2.1,0c-0.9,0-0.6,0-1.1,0c-0.2,2.8-0.3,3.4-0.3,4.4
		c-2.3,0-0.5,0-4.2-0.1c0,1.5-0.1,1.8-0.2,2.9l2-0.1h2.2l-0.4,4.4c0.5,0,0.2,0,1.1,0c0.8,0,1.5,0,2.1,0c0.3-3,0.3-3.3,0.4-4.4
		c2.1,0,0.2,0,4.2,0.1c0.1-1.6,0.1-1.9,0.2-2.9L195.7,44.1z"/>
	<path class="st0" d="M117.5,36.4c-0.7-0.7-1.7-1.2-2.8-1.5c-1.2-0.3-2.4-0.5-3.7-0.5c-0.8,0-1.6,0.1-2.3,0.2
		c-0.7,0.1-1.4,0.3-2,0.5c-0.6,0.2-1.1,0.5-1.7,0.9c-0.5,0.4-0.9,0.7-1.3,1.1c-0.3,0.4-0.7,0.9-1.2,1.5l0.2-3.6c-1,0-2,0-3,0
		c-0.8,0-0.3,0-1.7,0c0,3.2-0.2,6.8-0.4,10.9c-0.2,4-0.5,7.7-0.8,10.9c1.3,0,0.9,0,1.8,0c0.8,0,1.8,0,2.8,0c0.1-3.5,0.2-6.3,0.4-8.4
		c0.2-2.4,0.5-4,0.9-5.1c0.4-1,0.9-1.8,1.6-2.4c0.6-0.6,1.4-1.1,2.3-1.5c0.9-0.3,1.8-0.5,2.9-0.5c1,0,2,0.2,2.9,0.5
		c0.9,0.4,1.6,0.9,2,1.6c0.4,0.7,0.6,1.6,0.6,2.8c0,1-0.1,3.1-0.3,6.3c-0.2,3.1-0.4,5.3-0.5,6.6c0.5,0,0.9,0,1.4,0
		c0.8,0,1.8,0,2.9,0c0-1.5,0-2.9,0.1-4.2l0.4-9.4c0-0.8,0.1-1.5,0.1-1.8c0-0.9-0.1-1.8-0.3-2.6C118.7,37.8,118.2,37.1,117.5,36.4z"
		/>
	<path class="st0" d="M179.4,37.5c-1.7-1.7-4.1-2.5-6.5-2.6c-3.4-0.1-6.8,1.1-8.7,3.9c-2.3,3.3-2.3,7.8-1.2,11.4
		c1,3.4,3.7,5.9,7.5,6.3c0,0,0.1,0,0.6,0.1c1.8,0.1,3.6,0,5.4-0.3c0.7-0.1,1.6-0.3,2.6-0.5c0.2-1.4,0.3-2.7,0.4-4.1
		c-1.5,1-3.4,1.2-5.2,1.1c-1.3,0-2.7-0.2-3.9-0.7c-1.4-0.6-2.5-1.5-3-2.9c-0.3-0.8-0.5-1.6-0.5-2.5c0-0.3,0-0.7,0-1.2
		c0-0.1,6.5,0,6.9,0c2.3,0,4.7,0,7,0c0.3,0,0.6,0.1,0.8-0.2c0.4-0.5,0.2-2.3,0.1-2.9C181.5,40.7,180.8,38.8,179.4,37.5z M167.1,43.3
		c0.1-0.6,0.3-1.2,0.4-1.5c0.1-0.4,0.4-0.8,0.7-1.2c0.3-0.4,0.7-0.8,1.1-1.1c0.5-0.3,1-0.6,1.6-0.8c0.6-0.2,1.1-0.3,1.7-0.3
		c0.5,0,1,0.1,1.4,0.2c0.4,0.1,0.8,0.3,1.2,0.5c0.3,0.2,0.6,0.5,0.9,0.8c0.3,0.3,0.5,0.7,0.6,1.1c0.1,0.4,0.2,0.8,0.3,1.1
		c0,0.3,0.1,0.8,0.1,1.4L167.1,43.3z"/>
	<path class="st0" d="M144.1,22.6c-13.2-26-50.3-27.3-68.4-5.8c-3.9,4.5-6.8,10-8.4,15.8h2c1.7-5.1,4.5-9.8,8.1-13.8
		c14-15.5,40.1-18.1,56-3.9c3,2.7,5.4,6.4,7.3,9.9l0.3,0.6l3.6-1.8C144.6,23.6,144.1,22.6,144.1,22.6z M75.7,18.7L75.7,18.7
		C75.6,18.7,75.6,18.7,75.7,18.7C75.7,18.7,75.7,18.7,75.7,18.7C75.7,18.7,75.7,18.7,75.7,18.7z"/>
	<path class="st0" d="M147.8,30.1c0-1.8-1.5-3.2-3.3-3.2c-1.8,0-3.3,1.4-3.3,3.2s1.5,3.2,3.3,3.2C146.4,33.3,147.8,31.9,147.8,30.1z
		"/>
</g>
</svg>
