<?xml version="1.0" encoding="utf-8"?>
<!-- Generator: Adobe Illustrator 24.0.1, SVG Export Plug-In . SVG Version: 6.00 Build 0)  -->
<svg version="1.1" id="圖層_1" xmlns="http://www.w3.org/2000/svg" xmlns:xlink="http://www.w3.org/1999/xlink" x="0px" y="0px"
	 viewBox="0 0 274 49" style="enable-background:new 0 0 274 49;" xml:space="preserve">
<style type="text/css">
	.st0{fill:#441F4B;}
	.st1{fill:#585757;}
</style>
<title>h_logo_tc</title>
<desc>Created with Sketch.</desc>
<g>
	<g>
		<path class="st0" d="M251.5,21.5v-1.9c-0.8,0.9-1.9,1.6-3,2.2h8.2v5.4H255v-0.4h-5.1v0.4h-1.6v-5.3c-0.4,0.2-0.8,0.4-1.3,0.5
			c-0.2-0.4-0.7-1-1.1-1.4c1.4-0.4,2.9-1.1,4-1.9h-3.6v-1.4h5.2v-0.9c-1.2,0.1-2.5,0.2-3.6,0.2c0-0.4-0.2-1-0.4-1.4
			c3-0.1,6.3-0.4,8.3-0.9l1.1,1.3c-1.1,0.3-2.4,0.5-3.8,0.6v1.1h5.2v1.4h-3.2c1.3,0.7,2.7,1.6,3.5,2.2l-1,1.2c-1-0.9-2.8-2.1-4.5-3
			v1.9H251.5z M249.9,23v0.7h5.1V23H249.9z M255,25.6v-0.7h-5.1v0.7H255z"/>
		<path class="st0" d="M262.3,21c-0.5-0.4-1.5-1-2.2-1.4l0.9-1.1c0.7,0.3,1.7,0.9,2.2,1.3L262.3,21z M266.9,24.3v0.8
			c0,0.5,0.1,0.6,0.9,0.6h2.4c0.6,0,0.7-0.2,0.8-1.4c0.3,0.2,0.9,0.4,1.3,0.5c-0.2,1.7-0.6,2.2-2,2.2h-2.7c-1.7,0-2.1-0.4-2.1-1.9
			v-2.6c-0.4,0.4-0.8,0.8-1.2,1.2c-0.2-0.3-0.5-0.6-0.8-0.9c-0.5,1.3-1.1,2.8-1.7,4l-1.4-0.9c0.6-1,1.3-2.6,1.9-4.1l0.9,0.7
			c0.9-0.6,1.7-1.6,2.3-2.6h-2v-1.4h2.2v-1H264V16h1.7v-1.3h1.5V16h1.9v-1.3h1.6V16h1.7v1.4h-1.7v1h2.1v1.4h-2.1
			c0.5,0.9,1.4,1.8,2.2,2.3c-0.4,0.3-0.9,0.9-1.1,1.3c-0.4-0.3-0.9-0.7-1.3-1.2v2.1H266.9z M263,17.5c-0.5-0.4-1.4-1-2.1-1.5l1-1.1
			c0.7,0.4,1.7,0.9,2.1,1.3L263,17.5z M267.2,19.9c-0.2,0.4-0.4,0.8-0.6,1.1h3.1c-0.2-0.4-0.4-0.8-0.6-1.1H267.2z M269.3,22.2h-2.4
			v1.1h2.4V22.2z M267.3,18.4h1.9v-1h-1.9V18.4z"/>
	</g>
	
		<image style="overflow:visible;" width="528" height="494" xlink:href="D47B3B8F11981520.png"  transform="matrix(9.673907e-02 0 0 9.673907e-02 0.106 0.6133)">
	</image>
	<g>
		<path class="st1" d="M199.1,31.9h5.7v0.9c0,3.6-0.8,5.9-2.3,6.9c-1.5,1.1-4.9,1.6-10.1,1.6c-5.9,0-9.6-0.8-10.9-2.5
			c-1.4-1.6-2-6.1-2-13.3c0-4.2,0.9-7,2.8-8.4c1.8-1.3,5.7-2,11.6-2c4.3,0,7.1,0.5,8.6,1.6c1.4,1.1,2.2,3.3,2.2,6.5l0,0.6h-5.7v-0.7
			c0-1.7-0.4-2.8-1.1-3.2c-0.7-0.5-2.4-0.7-5.1-0.7c-3.5,0-5.6,0.4-6.4,1.1c-0.7,0.7-1.1,2.9-1.1,6.6c0,4.9,0.3,7.8,1,8.7
			c0.6,0.9,2.7,1.4,6.2,1.4c2.8,0,4.7-0.3,5.5-0.8c0.8-0.5,1.3-1.6,1.3-3.3L199.1,31.9z"/>
		<polyline class="st1" points="68.6,40.7 87.7,40.7 87.7,36.7 74.1,36.7 74.1,15.8 68.6,15.8 68.6,40.7 		"/>
		<path class="st1" d="M138,30.2h-7.3v-4.1h12.8l0.1,6.4c0,3.7-0.8,6.1-2.4,7.2c-1.6,1.1-5.1,1.6-10.6,1.6c-5,0-8.4-0.7-10-2.1
			c-1.6-1.4-2.5-4.3-2.5-8.7c0-5.6,0.3-9.2,1-10.6c0.8-1.8,2-3,3.7-3.6c1.6-0.6,4.5-0.9,8.4-0.9c5.2,0,8.5,0.5,10,1.5
			c1.5,1,2.2,2.8,2.2,6.1h-5.6c-0.1-1.7-0.4-2.4-1.2-2.8c-0.7-0.4-2.6-0.6-5.5-0.6c-3.2,0-5.2,0.4-6.1,1c-0.9,0.7-1.3,2.4-1.3,4.9
			l0,2.6l0,3.3c0,2.5,0.4,4.2,1.3,4.9c0.9,0.7,2.8,1.1,5.9,1.1c3,0,4.9-0.3,5.7-0.9c0.8-0.6,1.2-2,1.2-4.2L138,30.2z"/>
		<polygon class="st1" points="93.3,40.7 112.3,40.7 112.3,36.7 98.5,36.7 98.5,30.2 98.5,30.2 111.6,30.2 111.6,26.3 98.5,26.3 
			98.5,19.8 112.3,19.8 112.3,15.8 93.3,15.8 		"/>
		<polygon class="st1" points="227.4,15.9 220.6,26.2 213.8,15.9 206.8,15.9 217.9,30.3 217.9,40.7 220.6,40.7 223.3,40.7 
			223.3,30.3 234.4,15.9 		"/>
		<path class="st1" d="M157.9,16l-10,24.2h6l2.4-6h11.8l2.4,6h6l-10-24.2H157.9z M158,30.2l4.3-10.6l4.3,10.6H158z"/>
	</g>
</g>
</svg>
