<?xml version="1.0" encoding="utf-8"?>
<!-- Generator: Adobe Illustrator 24.0.1, SVG Export Plug-In . SVG Version: 6.00 Build 0)  -->
<svg version="1.1" id="圖層_1" xmlns="http://www.w3.org/2000/svg" xmlns:xlink="http://www.w3.org/1999/xlink" x="0px" y="0px"
	 viewBox="0 0 274 49" style="enable-background:new 0 0 274 49;" xml:space="preserve">
<style type="text/css">
	.st0{fill:#441F4B;}
	.st1{fill:#585757;}
</style>
<g>
	<g>
		<path class="st0" d="M249.4,20.8c-0.5-0.5-1.5-1.2-2.2-1.6l0.9-1.1c0.7,0.4,1.8,1,2.3,1.5L249.4,20.8z M250.9,22.2
			c-0.6,1.4-1.3,2.9-2,4.2l-1.4-1c0.6-1,1.5-2.7,2.1-4.2L250.9,22.2z M250.1,17.2c-0.5-0.5-1.5-1.2-2.2-1.7l1-1.1
			c0.7,0.4,1.7,1.1,2.2,1.5L250.1,17.2z M256.9,22.3c0.8,1,1.9,1.9,3,2.4c-0.4,0.3-0.8,0.9-1.1,1.2c-1-0.6-2-1.6-2.8-2.7v3.5h-1.6
			v-3.4c-0.8,1.1-1.9,2.1-3,2.7c-0.2-0.4-0.7-1-1.1-1.3c1.2-0.5,2.4-1.4,3.1-2.5h-2.3v-1.4h3.3v-1.3h1.6v1.3h3.4v1.4H256.9z
			 M254.9,16.6c-0.1,1.9-0.6,3-3.4,3.5c-0.1-0.4-0.5-0.9-0.8-1.2c2.4-0.3,2.7-0.9,2.8-2.3H254.9z M252.7,17.6h-1.4v-2.7h8.1v2.7
			h-1.5v-1.3h-5.2V17.6z M258.7,18.4c0.3,0,0.7,0,0.9-0.1c0,0.4,0.1,1,0.1,1.3c-0.2,0.1-0.6,0.1-1,0.1h-1.3c-1.4,0-1.7-0.5-1.7-1.8
			v-1.4h1.4V18c0,0.3,0.1,0.4,0.3,0.4H258.7z"/>
		<path class="st0" d="M266.2,23.4c-1.5,0.6-3.1,1.3-4.4,1.8l-0.5-1.6c0.5-0.1,1.1-0.3,1.8-0.6v-4h-1.5v-1.6h1.5v-3h1.6v3h1.5V19
			h-1.5v3.4l1.2-0.4L266.2,23.4z M266.7,14.6h1.6v4.6c0,2.5-0.1,5.3-1.5,7.4c-0.4-0.3-1.1-0.7-1.6-0.9c1.4-1.9,1.5-4.2,1.5-6.5V14.6
			z M269.3,15.3h1.5V25h-1.5V15.3z M273.4,14.5v12h-1.6v-12H273.4z"/>
	</g>
	
		<image style="overflow:visible;" width="528" height="494" xlink:href="D4B628E827FC6321.png"  transform="matrix(9.629895e-02 0 0 9.629895e-02 0.5699 0.281)">
	</image>
	<g>
		<path class="st1" d="M198.7,31.5h5.7v0.9c0,3.6-0.8,5.9-2.3,6.9c-1.5,1-4.9,1.6-10.1,1.6c-5.9,0-9.5-0.8-10.9-2.5
			c-1.4-1.6-2-6-2-13.2c0-4.2,0.9-7,2.8-8.3c1.8-1.3,5.7-2,11.5-2c4.3,0,7.1,0.5,8.5,1.6c1.4,1.1,2.1,3.3,2.1,6.5l0,0.6h-5.7v-0.7
			c0-1.7-0.4-2.7-1.1-3.2c-0.7-0.5-2.4-0.7-5-0.7c-3.5,0-5.6,0.4-6.3,1.1c-0.7,0.7-1.1,2.9-1.1,6.5c0,4.9,0.3,7.8,0.9,8.7
			c0.6,0.9,2.7,1.4,6.2,1.4c2.8,0,4.6-0.3,5.5-0.8c0.8-0.5,1.3-1.6,1.3-3.3L198.7,31.5z"/>
		<polyline class="st1" points="68.8,40.2 87.8,40.2 87.8,36.3 74.2,36.3 74.2,15.4 68.8,15.4 68.8,40.2 		"/>
		<path class="st1" d="M137.9,29.8h-7.3v-4h12.7l0.1,6.3c0,3.7-0.8,6.1-2.4,7.1c-1.6,1.1-5.1,1.6-10.5,1.6c-5,0-8.3-0.7-9.9-2.1
			c-1.6-1.4-2.4-4.3-2.4-8.7c0-5.6,0.3-9.1,1-10.6c0.8-1.8,2-3,3.7-3.6c1.6-0.6,4.4-0.9,8.4-0.9c5.1,0,8.5,0.5,10,1.4
			c1.5,1,2.2,2.8,2.2,6.1h-5.6c-0.1-1.7-0.4-2.4-1.2-2.8c-0.7-0.4-2.6-0.6-5.5-0.6c-3.2,0-5.2,0.4-6.1,1c-0.9,0.7-1.3,2.3-1.3,4.9
			l0,2.6l0,3.3c0,2.5,0.4,4.1,1.3,4.8c0.8,0.7,2.8,1,5.9,1c3,0,4.9-0.3,5.7-0.9c0.8-0.6,1.2-2,1.2-4.1L137.9,29.8z"/>
		<polygon class="st1" points="93.3,40.2 112.3,40.2 112.3,36.2 98.5,36.2 98.5,29.8 98.5,29.8 111.6,29.8 111.6,25.8 98.5,25.8 
			98.5,19.4 112.3,19.4 112.3,15.4 93.3,15.4 		"/>
		<polygon class="st1" points="226.9,15.5 220.1,25.8 213.3,15.5 206.3,15.5 217.4,29.8 217.4,40.2 220.1,40.2 222.8,40.2 
			222.8,29.8 233.8,15.5 		"/>
		<path class="st1" d="M157.7,15.6l-9.9,24.1h6l2.4-5.9h11.8l2.4,5.9h6l-9.9-24.1H157.7z M157.7,29.7l4.3-10.6l4.3,10.6H157.7z"/>
	</g>
</g>
</svg>
