<?xml version="1.0" encoding="utf-8"?>
<!-- Generator: Adobe Illustrator 24.0.1, SVG Export Plug-In . SVG Version: 6.00 Build 0)  -->
<svg version="1.1" id="圖層_1" xmlns="http://www.w3.org/2000/svg" xmlns:xlink="http://www.w3.org/1999/xlink" x="0px" y="0px"
	 viewBox="0 0 274 49" style="enable-background:new 0 0 274 49;" xml:space="preserve">
<style type="text/css">
	.st0{fill:#004097;}
	.st1{fill:#E74473;}
</style>
<title>h_logo_tc</title>
<desc>Created with Sketch.</desc>
<g>
	<path class="st0" d="M114.2,44.2l-3.2,0c0.1-2,0.1-4.1,0.2-6.1l0.4-7.2c0.1-2.8,0.3-5.8,0.5-8c-1.3,0-2.2,0-2.7,0
		c-0.8,0-0.2,0-1.4,0c0,3.9-0.2,8.7-0.4,13.1c-0.2,4.4-0.5,8.4-0.9,12l1.8,0l5.9,0c2.3,0,5.1,0,8.4,0c0.1-1.4,0.2-2.7,0.3-3.9
		c-0.9,0-1.9,0.1-2.8,0.1C119.2,44.2,117.3,44.2,114.2,44.2z"/>
	<path class="st0" d="M21.3,30.8l-2.7-7.3c-1.1,0-1,0-2.2,0c-0.7,0-0.9,0-2.6,0c-1,2-2.3,4.5-3.8,7.3l-4.9,9.1
		c-1.7,3.2-3.3,6-4.6,8.2c1.6,0,2.7,0,3.2,0L6,48c1.4-3,3-6.3,4.5-9.1h9.4c0.4,1.1,1.2,3,1.8,4.8c0.6,1.8,1.1,3.2,1.4,4.3
		c1.5,0,1.3,0,2,0l2.8,0l-0.8-2L21.3,30.8z M11.9,35.5l2.7-5.3l1.5-3l2.9,8.3H11.9z"/>
	<path class="st0" d="M32.2,34.2c0.5-0.6,1.2-1.1,1.9-1.4c0.8-0.3,1.5-0.4,2.4-0.4c1.4,0,3-0.1,4.8,0.5l1.5-3.7
		c-1.2-0.3-2.2-0.5-3-0.6c-0.9-0.1-1.7-0.1-2.5-0.1c-1.5,0-2.8,0.2-4,0.5c-1.2,0.3-2.3,1-3.2,1.9c-1,0.9-1.7,2.1-2.2,3.5
		c-0.5,1.4-0.8,2.9-0.8,4.5c0,1.2,0.2,2.3,0.5,3.4c0.3,1.1,0.8,2.1,1.4,2.8c0.6,0.8,1.3,1.4,2.1,1.9c0.8,0.5,1.7,0.8,2.6,1
		c0.9,0.2,1.9,0.3,2.9,0.3c1.7,0,3-0.2,4.8-0.6c0.1-1,0.3-1.8,0.4-2.4c0.1-0.4,0.2-0.8,0.2-1.3c0,0.1-1.4,0.3-1.6,0.3
		c-0.6,0.1-1.1,0.2-1.7,0.2c-1.1,0.1-2.3,0.1-3.4-0.1c-0.8-0.1-1.6-0.4-2.4-0.8c-2.5-1.5-2.6-4.9-1.9-7.4
		C31.3,35.5,31.7,34.8,32.2,34.2z"/>
	<path class="st0" d="M51.9,24.5c-1.3,0.3-1.8,0.5-2.2,0.6l-1.3,0.4c-0.1,1.7-0.1,3-0.2,3.7h-3.7c0,1.7-0.1,2.9-0.2,3.6h3.5
		l-0.4,7.8c-0.1,1.5-0.1,2.4-0.1,2.6c0,0.3,0,0.5,0,0.7c0,0.6,0.1,1.2,0.3,1.8c0.1,0.3,0.2,0.7,0.4,0.9c0.2,0.3,0.5,0.6,0.8,0.8
		c0.4,0.2,0.8,0.4,1.2,0.5c0.8,0.3,1.6,0.4,2.5,0.4c0.6,0,1.3-0.1,1.9-0.2c0.3-0.1,0.6-0.1,0.9-0.2c0.1,0,0.8-0.1,0.9-0.2
		c0.3-1.9,0.6-3.1,0.7-3.8c-0.9,0.2-1.5,0.4-1.8,0.4c-0.3,0-0.7,0.1-1,0.1c-0.5,0-1.1,0-1.6-0.1c-0.3-0.1-0.7-0.2-0.9-0.5
		c-0.2-0.3-0.4-0.6-0.4-0.9c-0.1-0.3-0.1-0.7,0-1.1c0.1-1.3,0.1-2.6,0.2-3.9c0.1-1.8,0.3-3.6,0.4-5.4l5.3,0.1c0-0.7,0-1.9,0.1-3.6
		h-5.2C51.7,27.7,51.8,26.1,51.9,24.5z"/>
	<path class="st0" d="M58.8,29c0,2.3-0.1,4.8-0.2,7.4c-0.1,2.6-0.2,4.9-0.3,6.9c-0.1,1.3-0.2,2.8-0.4,4.7c1.3,0,2.3,0,2.9,0
		c0.7,0,0.3,0,1.4,0c0-1.5,0-3.5,0.1-6c0-2.5,0.1-4.8,0.2-6.8c0.1-2,0.2-4,0.4-6.2c-1.2,0-0.9,0-1.4,0C61,29,60.1,29,58.8,29z"/>
	<path class="st0" d="M82.3,31.1c-0.9-0.8-2-1.5-3.3-1.9c-1.3-0.4-2.7-0.6-4.1-0.6c-1.5,0-3,0.3-4.5,0.8c-1.4,0.5-2.6,1.3-3.6,2.3
		c-0.9,1-1.6,2.1-2,3.3c-0.4,1.2-0.7,2.5-0.7,3.9c0,1.3,0.2,2.6,0.7,3.9c0.5,1.2,1.2,2.3,2.1,3.1c0.9,0.9,2,1.5,3.3,1.9
		c1.3,0.4,2.7,0.6,4.1,0.6c1.6,0,3-0.2,4.4-0.7c1.4-0.5,2.5-1.2,3.4-2.2c0.9-1,1.6-2.1,2.1-3.4c0.5-1.3,0.7-2.7,0.7-4.1
		c0-1.3-0.2-2.6-0.7-3.8C83.9,33,83.2,31.9,82.3,31.1z M80.4,42c-0.5,1.2-1.3,2.2-2.4,2.8c-1.1,0.6-2.3,0.9-3.7,0.9
		c-1.4,0-2.6-0.3-3.6-0.9c-1-0.6-1.7-1.4-2.2-2.4c-0.4-1-0.7-2.1-0.7-3.4c0-1.4,0.3-2.8,0.8-4c0.5-1.2,1.4-2.1,2.4-2.8
		c1.1-0.6,2.3-0.9,3.7-0.9c1.4,0,2.6,0.3,3.6,0.9c1,0.6,1.7,1.4,2.1,2.4c0.4,1,0.6,2.1,0.6,3.3C81.2,39.4,81,40.7,80.4,42z"/>
	<path class="st0" d="M125.3,29c0,2.3-0.1,4.8-0.2,7.4c-0.1,2.6-0.2,4.9-0.3,6.9c-0.1,1.3-0.2,2.8-0.4,4.7c1.3,0,1,0,1.6,0
		c0.7,0,1.6,0,2.7,0c0-1.5,0-3.5,0.1-6c0-2.5,0.1-4.8,0.2-6.7c0.1-2,0.2-4,0.4-6.2c-1.2,0-2.2,0-2.7,0C126.1,29,126.5,29,125.3,29z"
		/>
	<path class="st0" d="M136.7,29.1c-0.1,0,0-1,0-1.1c0.1-0.5,0.3-1,0.7-1.4c1.4-1.3,3.7-0.5,5.2,0c-0.1-1-0.2-2.1-0.2-3.5
		c-1.6-0.4-1.8-0.6-3.2-0.6c-0.7,0-1.4,0.1-2,0.2c-0.7,0.1-1.3,0.3-1.8,0.6c-0.6,0.3-1,0.7-1.3,1.1c-0.3,0.4-0.5,1-0.6,1.7
		c-0.1,0.7-0.2,1-0.2,2.3l0,0.7h-2.5c0,0.4,0,1-0.1,1.8c0,0.8-0.1,1.4-0.1,1.8h2.3L132.4,45l-0.2,3c1.1,0,2,0,2.7,0
		c0.7,0,0.3,0,1.4,0c0.1-5,0.3-10.6,0.6-15.3h5.8c0.1-1.5,0.1-2.7,0.2-3.5H136.7z"/>
	<path class="st0" d="M171.9,37l-2,0l0.4-3.8c-0.4,0-1,0-1.8,0c-0.8,0-0.5,0-0.9,0c-0.1,2.5-0.2,3-0.3,3.8c-2,0-0.4,0-3.7-0.1
		c0,1.3-0.1,1.6-0.2,2.5l1.7-0.1h1.9l-0.4,3.8c0.5,0,0.2,0,0.9,0c0.7,0,1.3,0,1.8,0c0.2-2.7,0.3-2.9,0.4-3.8c1.9,0,0.2,0,3.7,0.1
		c0-1.4,0.1-1.6,0.2-2.5L171.9,37z"/>
	<path class="st0" d="M103.8,30.3c-0.6-0.6-1.4-1.1-2.5-1.3c-1-0.3-2.1-0.4-3.2-0.4c-0.7,0-1.4,0.1-2,0.2c-0.6,0.1-1.2,0.3-1.7,0.4
		c-0.5,0.2-1,0.4-1.5,0.7c-0.5,0.3-0.8,0.6-1.1,1c-0.3,0.3-0.6,0.8-1,1.3L91,29c-0.9,0-1.8,0-2.6,0c-0.7,0-0.3,0-1.4,0
		c0,2.8-0.1,5.9-0.3,9.5c-0.2,3.5-0.4,6.7-0.7,9.5c1.1,0,0.8,0,1.6,0c0.7,0,1.6,0,2.5,0c0.1-3.1,0.2-5.5,0.4-7.3
		c0.2-2,0.4-3.5,0.8-4.4c0.3-0.8,0.8-1.5,1.4-2.1c0.6-0.6,1.2-1,2-1.3c0.8-0.3,1.6-0.4,2.5-0.4c0.9,0,1.7,0.2,2.5,0.5
		c0.8,0.3,1.4,0.8,1.7,1.4c0.4,0.6,0.6,1.4,0.6,2.4c0,0.9-0.1,2.7-0.3,5.5c-0.2,2.7-0.3,4.7-0.4,5.8c0.4,0,0.8,0,1.2,0
		c0.7,0,1.5,0,2.5,0c0-1.3,0-2.5,0.1-3.6l0.4-8.2c0-0.7,0.1-1.3,0.1-1.6c0-0.8-0.1-1.6-0.3-2.3C104.8,31.6,104.4,30.9,103.8,30.3z"
		/>
	<path class="st0" d="M157.7,31.2c-1.5-1.4-3.6-2.2-5.7-2.2c-2.9-0.1-5.9,0.9-7.6,3.4c-2,2.8-2,6.8-1.1,10c0.9,3,3.3,5.1,6.5,5.5
		c0,0,0.1,0,0.6,0.1c1.6,0.1,3.1,0,4.7-0.2c0.7-0.1,1.4-0.2,2.2-0.4c0.1-1.3,0.2-2.3,0.4-3.6c-1.3,0.9-3,1-4.5,1
		c-1.2,0-2.3-0.2-3.4-0.6c-1.2-0.5-2.1-1.3-2.6-2.5c-0.3-0.7-0.4-1.4-0.4-2.2c0-0.3,0-0.6,0-1c0,0,5.7,0,6,0c2,0,4.1,0,6.1,0
		c0.3,0,0.5,0.1,0.7-0.1c0.4-0.4,0.2-2,0.1-2.5C159.5,34.1,158.9,32.4,157.7,31.2z M146.9,36.3c0.1-0.6,0.2-1,0.4-1.3
		c0.1-0.3,0.3-0.7,0.6-1c0.3-0.4,0.6-0.7,1-1c0.4-0.3,0.9-0.5,1.4-0.7c0.5-0.2,1-0.2,1.5-0.2c0.4,0,0.9,0,1.3,0.1
		c0.4,0.1,0.7,0.2,1,0.4c0.3,0.2,0.6,0.4,0.8,0.7c0.2,0.3,0.4,0.6,0.5,0.9c0.1,0.3,0.2,0.7,0.3,0.9c0,0.3,0.1,0.7,0.1,1.2
		L146.9,36.3z"/>
	<path class="st1" d="M126.9,18.3C115.4-4.4,83.1-5.4,67.3,13.3c-3.4,4-6,8.7-7.3,13.7h1.8c1.5-4.4,3.9-8.5,7.1-12
		c12.2-13.5,35-15.8,48.7-3.4c2.6,2.3,4.7,5.6,6.4,8.6l0.3,0.5l3.1-1.6C127.3,19.2,126.9,18.3,126.9,18.3z M67.3,14.9L67.3,14.9
		C67.3,14.9,67.3,14.9,67.3,14.9C67.3,14.9,67.3,14.9,67.3,14.9C67.3,14.9,67.3,14.9,67.3,14.9z"/>
	<path class="st1" d="M130.2,24.9c0-1.5-1.3-2.8-2.8-2.8c-1.6,0-2.8,1.3-2.8,2.8c0,1.5,1.3,2.8,2.8,2.8
		C128.9,27.7,130.2,26.4,130.2,24.9z"/>
</g>
</svg>
