<?xml version="1.0" encoding="utf-8"?>
<!-- Generator: Adobe Illustrator 24.0.1, SVG Export Plug-In . SVG Version: 6.00 Build 0)  -->
<svg version="1.1" id="圖層_1" xmlns="http://www.w3.org/2000/svg" xmlns:xlink="http://www.w3.org/1999/xlink" x="0px" y="0px"
	 viewBox="0 0 274 49" style="enable-background:new 0 0 274 49;" xml:space="preserve">
<style type="text/css">
	.st0{fill:#441F4B;}
	.st1{fill:#585757;}
</style>
<g>
	<title>h_logo_tc</title>
	<desc>Created with Sketch.</desc>
	<g>
		<g>
			<path class="st0" d="M252.9,22.9l0.3,1.4c-1.9,0.8-4,1.6-5.6,2.3l-0.7-1.6h0c0.9-0.3,2.2-0.7,3.6-1.2V19h-3.1v-1.6h3.1v-3h1.7
				v8.8L252.9,22.9z M257.3,24.8c0.5,0,0.6-0.6,0.7-3.1c0.4,0.3,1.1,0.6,1.5,0.8c-0.1,2.8-0.5,3.9-2.1,3.9h-1.6
				c-1.5,0-1.9-0.6-1.9-2.4v-9.5h1.7v2.9h3.5v1.6h-3.5v5c0,0.7,0.1,0.9,0.5,0.9H257.3z"/>
			<path class="st0" d="M265.2,23.4c-0.7,1.1-1.8,2.3-2.7,3.1c-0.3-0.3-0.8-0.8-1.2-1c0.8-0.7,1.8-1.8,2.3-2.6L265.2,23.4z
				 M273.4,15.7v1.6h-11.9v-1.6h5.2c-0.2-0.4-0.4-0.8-0.6-1.1l1.6-0.5c0.3,0.5,0.7,1.1,0.9,1.6H273.4z M268.4,22.2v3
				c0,0.8-0.1,1.2-0.8,1.5c-0.6,0.2-1.4,0.2-2.5,0.2c-0.1-0.5-0.3-1.1-0.5-1.6c0.7,0,1.5,0,1.8,0c0.2,0,0.3,0,0.3-0.2v-2.9h-3.6
				v-4.2h8.9v4.2H268.4z M264.7,20.8h5.6v-1.5h-5.6V20.8z M271.1,22.8c0.8,0.9,1.8,2,2.4,2.8l-1.4,0.9c-0.5-0.8-1.5-2-2.3-2.9
				L271.1,22.8z"/>
		</g>
		
			<image style="overflow:visible;" width="528" height="494" xlink:href="C361C9B5247CE0D8.png"  transform="matrix(9.692559e-02 0 0 9.692559e-02 0.5699 0.1262)">
		</image>
		<g>
			<path class="st1" d="M200,31.5h5.7v0.9c0,3.6-0.8,5.9-2.3,6.9c-1.5,1.1-4.9,1.6-10.1,1.6c-5.9,0-9.6-0.8-10.9-2.5
				c-1.4-1.7-2-6.1-2-13.3c0-4.2,0.9-7,2.8-8.4c1.8-1.3,5.7-2,11.6-2c4.3,0,7.1,0.5,8.6,1.6c1.4,1.1,2.2,3.3,2.2,6.5l0,0.6h-5.7
				v-0.7c0-1.7-0.4-2.8-1.1-3.2c-0.7-0.5-2.4-0.7-5.1-0.7c-3.5,0-5.7,0.4-6.4,1.1c-0.7,0.7-1.1,2.9-1.1,6.6c0,4.9,0.3,7.8,1,8.7
				c0.6,0.9,2.7,1.4,6.2,1.4c2.8,0,4.7-0.3,5.5-0.8c0.8-0.5,1.3-1.6,1.3-3.3L200,31.5z"/>
			<polyline class="st1" points="69.2,40.3 88.3,40.3 88.3,36.3 74.7,36.3 74.7,15.4 69.2,15.4 69.2,40.3 			"/>
			<path class="st1" d="M138.8,29.8h-7.3v-4.1h12.8l0.1,6.4c0,3.7-0.8,6.1-2.4,7.2c-1.6,1.1-5.1,1.6-10.6,1.6c-5,0-8.4-0.7-10-2.2
				c-1.6-1.4-2.5-4.3-2.5-8.8c0-5.6,0.3-9.2,1-10.7c0.8-1.8,2-3,3.7-3.6c1.7-0.6,4.5-0.9,8.4-0.9c5.2,0,8.5,0.5,10,1.5
				c1.5,1,2.2,2.8,2.2,6.2h-5.6c-0.1-1.7-0.4-2.4-1.2-2.8c-0.7-0.4-2.6-0.6-5.5-0.6c-3.2,0-5.2,0.4-6.1,1.1c-0.9,0.7-1.3,2.4-1.3,5
				l0,2.6l0,3.3c0,2.5,0.4,4.2,1.3,4.9c0.9,0.7,2.8,1.1,5.9,1.1c3,0,4.9-0.3,5.7-0.9c0.8-0.6,1.2-2,1.2-4.2L138.8,29.8z"/>
			<polygon class="st1" points="93.9,40.3 113,40.3 113,36.3 99.2,36.3 99.2,29.8 99.2,29.8 112.3,29.8 112.3,25.8 99.2,25.8 
				99.2,19.3 113,19.3 113,15.4 93.9,15.4 			"/>
			<polygon class="st1" points="228.3,15.5 221.5,25.8 214.7,15.5 207.7,15.5 218.8,29.9 218.8,40.3 221.5,40.3 224.2,40.3 
				224.2,29.9 235.3,15.5 			"/>
			<path class="st1" d="M158.7,15.6l-10,24.2h6l2.4-6H169l2.4,6h6l-10-24.2H158.7z M158.8,29.8l4.3-10.6l4.3,10.6H158.8z"/>
		</g>
	</g>
</g>
</svg>
